<?xml version="1.0" encoding="utf-8"?>
<!-- Generator: Adobe Illustrator 24.3.0, SVG Export Plug-In . SVG Version: 6.00 Build 0)  -->
<svg version="1.1" id="Layer_1" xmlns="http://www.w3.org/2000/svg" xmlns:xlink="http://www.w3.org/1999/xlink" x="0px" y="0px"
	 viewBox="0 0 512 512" style="enable-background:new 0 0 512 512;" xml:space="preserve">
<style type="text/css">
	.st0{fill:#79fba7;}
</style>
<path class="st0" d="M444.2,32H70.3C49.8,32,32,46.7,32,66.9v374.7c0,20.3,17.8,38.4,38.3,38.4h373.8c20.5,0,35.9-18.2,35.9-38.4
	V66.9C480.1,46.7,464.6,32,444.2,32z M246.6,357.4c0,1.6-1.3,2.9-2.8,2.9h-46c-1.5,0-2.8-1.3-2.8-2.8v-74.2h-49.5v74.2
	c0,1.5-1.3,2.8-2.8,2.8h-46c-1.5,0-2.8-1.3-2.8-2.8V156.6c0-1.5,1.3-2.8,2.8-2.8h46c1.5,0,2.8,1.3,2.8,2.8v74.2h49.6v-74.2
	c0-1.5,1.3-2.8,2.8-2.8v0h45.9c1.5,0,2.8,1.3,2.8,2.9V357.4z M424,357.4c0,1.6-1.2,2.9-2.8,2.9H274.2c-1.5,0-2.8-1.3-2.8-2.8V156.5
	c0-1.5,1.3-2.8,2.8-2.8l0,0h147c1.6,0,2.8,1.3,2.8,2.8V357.4z"/>
</svg>
